<?xml version="1.0" standalone="no"?>
<!DOCTYPE svg PUBLIC "-//W3C//DTD SVG 20010904//EN"
 "http://www.w3.org/TR/2001/REC-SVG-20010904/DTD/svg10.dtd">
<svg version="1.0" xmlns="http://www.w3.org/2000/svg"
 width="512.000000pt" height="512.000000pt" viewBox="0 0 512.000000 512.000000"
 preserveAspectRatio="xMidYMid meet">

<g transform="translate(0.000000,512.000000) scale(0.100000,-0.100000)"
fill="#000000" stroke="none">
<path fill="#2d7e23" d="M2270 4517 c-19 -12 -43 -38 -54 -57 -20 -33 -21 -53 -24 -342 l-3
-308 -149 0 -148 0 -18 49 c-44 122 -163 251 -289 311 -119 57 -175 62 -666
58 -393 -4 -450 -6 -499 -22 -95 -31 -172 -79 -246 -151 -229 -225 -230 -585
-3 -814 58 -58 145 -114 222 -142 61 -23 70 -24 537 -27 336 -2 491 0 530 8
164 35 323 162 396 317 l39 82 483 1 c536 0 527 1 577 -65 48 -62 45 -142 -8
-202 -53 -61 -67 -63 -362 -63 -289 0 -294 -1 -348 -57 -62 -66 -59 -218 6
-281 18 -17 45 -36 60 -41 47 -18 727 -14 854 5 276 41 542 176 740 376 101
103 330 416 339 464 11 62 -4 100 -98 231 -139 195 -176 241 -261 325 -140
137 -309 239 -500 303 -179 60 -234 65 -677 65 -395 0 -397 0 -430 -23z"/>
<path fill="#2d7e23" d="M2835 2456 c-113 -28 -216 -111 -261 -211 -35 -75 -49 -178 -34 -235
26 -95 112 -141 232 -122 173 26 302 145 337 310 22 108 12 164 -42 220 -49
51 -127 64 -232 38z"/>
<path fill="#2d7e23" d="M3265 2028 c-97 -53 -146 -209 -111 -348 32 -122 103 -210 216 -264
155 -74 257 -10 292 184 19 111 -20 235 -104 326 -79 85 -229 138 -293 102z"/>
<path fill="#2d7e23" d="M1012 1754 c-51 -26 -76 -69 -80 -139 -3 -50 0 -66 20 -94 13 -19 39
-44 58 -55 34 -20 53 -21 555 -26 l520 -5 37 -23 c49 -30 69 -60 103 -152 119
-322 380 -561 715 -652 75 -20 107 -23 265 -22 167 0 186 2 269 27 229 71 411
196 548 377 49 64 131 221 162 311 19 53 67 106 113 125 25 11 105 14 349 14
213 0 329 4 356 12 48 14 105 75 114 122 13 75 -21 148 -87 181 -41 22 -708
22 -788 0 -81 -21 -159 -64 -222 -123 -73 -67 -110 -126 -156 -243 -79 -205
-193 -333 -370 -415 -112 -53 -188 -67 -328 -61 -145 6 -238 35 -348 106 -128
84 -246 234 -287 366 -50 160 -173 293 -331 358 -53 22 -62 22 -604 24 -493 3
-553 1 -583 -13z"/>
</g>
</svg>
